<mxfile host="app.diagrams.net" modified="2021-10-20T18:16:33.979Z" agent="5.0 (X11; Linux x86_64) AppleWebKit/537.36 (KHTML, like Gecko) Chrome/94.0.4606.81 Safari/537.36" etag="zCKfGEHvkQLf2x3eLncp" version="15.5.6" type="github">
  <diagram id="OQs3iEAa0W9RXveFbX1_" name="Page-1">
    <mxGraphModel dx="1179" dy="773" grid="1" gridSize="10" guides="1" tooltips="1" connect="1" arrows="1" fold="1" page="1" pageScale="1" pageWidth="1100" pageHeight="850" math="0" shadow="0">
      <root>
        <mxCell id="0" />
        <mxCell id="1" parent="0" />
        <mxCell id="wIqfOvaZARciwxkc9W19-1" value="&lt;font size=&quot;3&quot;&gt;upload API&lt;br&gt;user data&amp;nbsp;&lt;br&gt;actual Data&amp;nbsp;&lt;br&gt;meta data&amp;nbsp;&lt;br&gt;&lt;br&gt;&lt;/font&gt;" style="rounded=0;whiteSpace=wrap;html=1;fontFamily=Helvetica;" vertex="1" parent="1">
          <mxGeometry x="20" y="120" width="120" height="110" as="geometry" />
        </mxCell>
        <mxCell id="wIqfOvaZARciwxkc9W19-14" style="edgeStyle=orthogonalEdgeStyle;rounded=0;orthogonalLoop=1;jettySize=auto;html=1;fontFamily=Helvetica;fontSize=18;" edge="1" parent="1" source="wIqfOvaZARciwxkc9W19-2" target="wIqfOvaZARciwxkc9W19-13">
          <mxGeometry relative="1" as="geometry" />
        </mxCell>
        <mxCell id="wIqfOvaZARciwxkc9W19-2" value="Instagram" style="rounded=0;whiteSpace=wrap;html=1;fontFamily=Helvetica;fontSize=36;" vertex="1" parent="1">
          <mxGeometry x="210" y="180" width="250" height="170" as="geometry" />
        </mxCell>
        <mxCell id="wIqfOvaZARciwxkc9W19-4" value="" style="shape=flexArrow;endArrow=classic;startArrow=classic;html=1;rounded=0;fontFamily=Helvetica;fontSize=36;" edge="1" parent="1">
          <mxGeometry width="100" height="100" relative="1" as="geometry">
            <mxPoint x="60" y="250" as="sourcePoint" />
            <mxPoint x="210" y="250" as="targetPoint" />
            <Array as="points">
              <mxPoint x="140" y="250" />
            </Array>
          </mxGeometry>
        </mxCell>
        <mxCell id="wIqfOvaZARciwxkc9W19-5" value="&lt;font style=&quot;font-size: 18px&quot;&gt;userdata&lt;/font&gt;" style="whiteSpace=wrap;html=1;aspect=fixed;fontFamily=Helvetica;fontSize=36;" vertex="1" parent="1">
          <mxGeometry x="470" y="520" width="100" height="100" as="geometry" />
        </mxCell>
        <mxCell id="wIqfOvaZARciwxkc9W19-6" value="&lt;font style=&quot;font-size: 18px&quot;&gt;video&lt;/font&gt;" style="whiteSpace=wrap;html=1;aspect=fixed;fontFamily=Helvetica;fontSize=36;" vertex="1" parent="1">
          <mxGeometry x="560" y="660" width="80" height="80" as="geometry" />
        </mxCell>
        <mxCell id="wIqfOvaZARciwxkc9W19-7" value="&lt;font style=&quot;font-size: 18px&quot;&gt;video metadata&lt;/font&gt;" style="whiteSpace=wrap;html=1;aspect=fixed;fontFamily=Helvetica;fontSize=36;" vertex="1" parent="1">
          <mxGeometry x="700" y="520" width="110" height="110" as="geometry" />
        </mxCell>
        <mxCell id="wIqfOvaZARciwxkc9W19-8" value="&lt;font style=&quot;font-size: 24px&quot;&gt;video storage database&lt;/font&gt;" style="rounded=0;whiteSpace=wrap;html=1;fontFamily=Helvetica;fontSize=36;" vertex="1" parent="1">
          <mxGeometry x="780" y="280" width="210" height="130" as="geometry" />
        </mxCell>
        <mxCell id="wIqfOvaZARciwxkc9W19-10" value="mysql" style="text;html=1;align=center;verticalAlign=middle;resizable=0;points=[];autosize=1;strokeColor=none;fillColor=none;fontSize=18;fontFamily=Helvetica;" vertex="1" parent="1">
          <mxGeometry x="390" y="555" width="60" height="30" as="geometry" />
        </mxCell>
        <mxCell id="wIqfOvaZARciwxkc9W19-11" value="mongodb" style="text;html=1;align=center;verticalAlign=middle;resizable=0;points=[];autosize=1;strokeColor=none;fillColor=none;fontSize=18;fontFamily=Helvetica;" vertex="1" parent="1">
          <mxGeometry x="805" y="565" width="90" height="30" as="geometry" />
        </mxCell>
        <mxCell id="wIqfOvaZARciwxkc9W19-12" value="AWS S3" style="text;html=1;align=center;verticalAlign=middle;resizable=0;points=[];autosize=1;strokeColor=none;fillColor=none;fontSize=18;fontFamily=Helvetica;" vertex="1" parent="1">
          <mxGeometry x="640" y="685" width="80" height="30" as="geometry" />
        </mxCell>
        <mxCell id="wIqfOvaZARciwxkc9W19-13" value="v1,v2,v3" style="rounded=0;whiteSpace=wrap;html=1;fontFamily=Helvetica;fontSize=18;" vertex="1" parent="1">
          <mxGeometry x="470" y="70" width="120" height="60" as="geometry" />
        </mxCell>
        <mxCell id="wIqfOvaZARciwxkc9W19-15" value="&lt;font style=&quot;font-size: 18px&quot;&gt;200k vidoes per day&lt;br&gt;200k x 1mb=200GB x 3=600GB&lt;br&gt;&lt;br&gt;&lt;/font&gt;" style="rounded=0;whiteSpace=wrap;html=1;fontFamily=Helvetica;fontSize=24;" vertex="1" parent="1">
          <mxGeometry x="40" y="400" width="320" height="125" as="geometry" />
        </mxCell>
        <mxCell id="wIqfOvaZARciwxkc9W19-16" value="" style="shape=internalStorage;whiteSpace=wrap;html=1;backgroundOutline=1;fontFamily=Helvetica;fontSize=18;dx=40;dy=35;" vertex="1" parent="1">
          <mxGeometry x="870" y="135" width="80" height="80" as="geometry" />
        </mxCell>
        <mxCell id="wIqfOvaZARciwxkc9W19-17" value="Formats" style="text;html=1;align=center;verticalAlign=middle;resizable=0;points=[];autosize=1;strokeColor=none;fillColor=none;fontSize=18;fontFamily=Helvetica;" vertex="1" parent="1">
          <mxGeometry x="870" y="105" width="80" height="30" as="geometry" />
        </mxCell>
        <mxCell id="wIqfOvaZARciwxkc9W19-21" value="" style="shape=singleArrow;whiteSpace=wrap;html=1;arrowWidth=0.4;arrowSize=0.4;fontFamily=Helvetica;fontSize=18;" vertex="1" parent="1">
          <mxGeometry x="590" y="520" width="100" height="60" as="geometry" />
        </mxCell>
        <mxCell id="wIqfOvaZARciwxkc9W19-23" value="" style="shape=singleArrow;whiteSpace=wrap;html=1;arrowWidth=0.4;arrowSize=0.4;fontFamily=Helvetica;fontSize=18;direction=west;" vertex="1" parent="1">
          <mxGeometry x="580" y="580" width="100" height="60" as="geometry" />
        </mxCell>
        <mxCell id="wIqfOvaZARciwxkc9W19-24" value="user" style="ellipse;whiteSpace=wrap;html=1;fontFamily=Helvetica;fontSize=18;" vertex="1" parent="1">
          <mxGeometry x="220" y="690" width="120" height="80" as="geometry" />
        </mxCell>
        <mxCell id="wIqfOvaZARciwxkc9W19-26" value="" style="endArrow=classic;html=1;rounded=0;fontFamily=Helvetica;fontSize=18;" edge="1" parent="1" source="wIqfOvaZARciwxkc9W19-24">
          <mxGeometry width="50" height="50" relative="1" as="geometry">
            <mxPoint x="420" y="660" as="sourcePoint" />
            <mxPoint x="470" y="610" as="targetPoint" />
          </mxGeometry>
        </mxCell>
        <mxCell id="wIqfOvaZARciwxkc9W19-27" value="" style="endArrow=classic;html=1;rounded=0;fontFamily=Helvetica;fontSize=18;exitX=1.008;exitY=0.4;exitDx=0;exitDy=0;exitPerimeter=0;entryX=0.013;entryY=0.413;entryDx=0;entryDy=0;entryPerimeter=0;" edge="1" parent="1" source="wIqfOvaZARciwxkc9W19-24" target="wIqfOvaZARciwxkc9W19-6">
          <mxGeometry width="50" height="50" relative="1" as="geometry">
            <mxPoint x="470" y="725" as="sourcePoint" />
            <mxPoint x="520" y="675" as="targetPoint" />
          </mxGeometry>
        </mxCell>
        <mxCell id="wIqfOvaZARciwxkc9W19-28" value="" style="endArrow=classic;html=1;rounded=0;fontFamily=Helvetica;fontSize=18;exitX=1;exitY=0.5;exitDx=0;exitDy=0;entryX=0;entryY=0.25;entryDx=0;entryDy=0;" edge="1" parent="1" source="wIqfOvaZARciwxkc9W19-13" target="wIqfOvaZARciwxkc9W19-16">
          <mxGeometry width="50" height="50" relative="1" as="geometry">
            <mxPoint x="690" y="170" as="sourcePoint" />
            <mxPoint x="740" y="120" as="targetPoint" />
          </mxGeometry>
        </mxCell>
        <mxCell id="wIqfOvaZARciwxkc9W19-29" value="" style="endArrow=classic;html=1;rounded=0;fontFamily=Helvetica;fontSize=18;entryX=0.452;entryY=-0.008;entryDx=0;entryDy=0;entryPerimeter=0;exitX=0.5;exitY=1;exitDx=0;exitDy=0;" edge="1" parent="1" source="wIqfOvaZARciwxkc9W19-16" target="wIqfOvaZARciwxkc9W19-8">
          <mxGeometry width="50" height="50" relative="1" as="geometry">
            <mxPoint x="820" y="230" as="sourcePoint" />
            <mxPoint x="900" y="220" as="targetPoint" />
          </mxGeometry>
        </mxCell>
      </root>
    </mxGraphModel>
  </diagram>
</mxfile>
